<?xml version="1.0" standalone="no"?>
<!DOCTYPE svg PUBLIC "-//W3C//DTD SVG 20010904//EN"
 "http://www.w3.org/TR/2001/REC-SVG-20010904/DTD/svg10.dtd">
<svg version="1.0" xmlns="http://www.w3.org/2000/svg"
 width="530.000000pt" height="420.000000pt" viewBox="0 0 530.000000 420.000000"
 preserveAspectRatio="xMidYMid meet">

<g transform="translate(0.000000,420.000000) scale(0.100000,-0.100000)"
fill="#000000" stroke="none">
<path d="M1955 3198 c-347 -348 -666 -670 -710 -716 l-78 -83 167 -168 168
-168 549 551 548 551 552 -552 551 -552 162 166 c88 91 162 168 164 172 3 9
-1423 1431 -1435 1431 -4 0 -292 -285 -638 -632z"/>
<path d="M2120 2205 c-18 -21 -5 -33 45 -41 l45 -6 0 -124 0 -124 30 0 30 0 0
124 0 125 48 3 c43 3 47 5 50 31 l3 27 -119 0 c-92 0 -122 -3 -132 -15z"/>
<path d="M2486 2174 c-3 -26 -6 -85 -6 -131 l0 -84 33 3 c29 3 32 6 35 41 l3
37 60 0 59 0 0 -39 c0 -50 15 -91 34 -91 19 0 24 17 31 112 6 90 -4 189 -20
195 -23 7 -38 -18 -43 -71 l-4 -56 -58 0 -58 0 -4 56 c-5 53 -17 73 -44 74 -6
0 -14 -21 -18 -46z"/>
<path d="M2870 2065 l0 -155 105 0 c77 0 105 3 105 13 0 27 -18 36 -80 44 -61
7 -65 10 -65 33 0 23 5 25 50 30 45 5 50 7 50 30 0 23 -3 25 -47 23 l-48 -3 0
40 0 40 70 0 70 0 0 30 0 30 -105 0 -105 0 0 -155z"/>
<path d="M313 1573 c-17 -26 -18 -69 -15 -668 2 -584 4 -641 19 -652 13 -10
114 -13 425 -13 l408 0 20 32 c43 71 32 171 -23 212 -27 20 -43 21 -298 25
l-269 3 0 133 0 132 222 7 c122 4 230 12 240 17 22 12 45 55 48 89 5 60 -1 81
-36 120 l-36 40 -219 0 -219 0 0 135 0 135 113 0 c61 0 190 3 285 7 l172 6 22
35 c29 48 30 136 0 184 l-22 35 -262 6 c-145 4 -329 7 -410 7 l-148 0 -17 -27z"/>
<path d="M1553 1594 c-12 -3 -25 -13 -29 -22 -5 -9 -10 -303 -12 -652 l-3
-635 29 -28 29 -28 234 10 c153 7 255 16 294 27 205 55 382 219 463 432 24 62
26 78 25 213 -2 131 -5 155 -30 230 -68 207 -251 378 -463 432 -55 14 -490 31
-537 21z m487 -303 c134 -51 233 -177 255 -324 11 -70 -18 -183 -64 -254 -80
-125 -180 -180 -343 -190 l-88 -6 0 404 0 404 93 -6 c56 -4 113 -15 147 -28z"/>
<path d="M3372 1581 c-434 -107 -639 -570 -430 -974 80 -155 245 -292 413
-343 84 -26 326 -26 404 -2 102 33 188 78 202 106 15 31 25 375 14 479 -5 51
-13 71 -35 96 l-28 32 -180 0 c-168 0 -182 -1 -209 -21 -41 -31 -59 -85 -44
-134 21 -71 46 -90 134 -102 l77 -11 0 -88 0 -88 -36 -7 c-19 -3 -73 -4 -119
-2 -107 6 -189 43 -264 123 -69 73 -103 148 -109 242 -11 176 81 336 235 405
72 33 227 33 302 -1 l53 -24 79 80 c44 44 79 87 79 95 0 48 -114 117 -238 143
-90 19 -211 18 -300 -4z"/>
<path d="M4303 1574 c-17 -27 -18 -64 -18 -659 0 -495 3 -635 13 -652 l13 -23
414 0 415 0 20 33 c15 23 20 50 20 99 0 61 -3 71 -29 100 l-29 33 -274 3
c-193 3 -275 7 -280 15 -4 7 -8 67 -8 135 l0 122 133 0 c74 0 176 3 226 7 l93
6 25 38 c22 34 25 45 19 92 -5 38 -16 64 -37 90 l-30 37 -208 0 -208 0 -7 31
c-9 44 -7 222 2 236 6 9 74 11 267 10 229 -2 264 0 291 15 49 27 66 98 43 180
-19 72 -23 72 -461 76 l-386 4 -19 -28z"/>
</g>
</svg>
